<svg xmlns="http://www.w3.org/2000/svg" viewBox="0 0 800 600">
  <defs>
    <linearGradient id="bg" x1="0%" y1="0%" x2="100%" y2="100%">
      <stop offset="0%" stop-color="#1e293b"/>
      <stop offset="100%" stop-color="#0f172a"/>
    </linearGradient>
    <linearGradient id="acc" x1="0%" y1="0%" x2="100%" y2="100%">
      <stop offset="0%" stop-color="#6366f1"/>
      <stop offset="100%" stop-color="#8b5cf6"/>
    </linearGradient>
    <filter id="shadow" x="-20%" y="-20%" width="140%" height="140%">
      <feDropShadow dx="0" dy="12" stdDeviation="20" flood-color="#000" flood-opacity="0.4"/>
    </filter>
  </defs>
  <rect width="800" height="600" fill="url(#bg)"/>
  <rect x="280" y="120" width="240" height="320" rx="14" fill="#fff" filter="url(#shadow)"/>
  <rect x="280" y="120" width="240" height="80" rx="14" fill="url(#acc)"/>
  <circle cx="400" cy="160" r="22" fill="#fff"/>
  <rect x="305" y="220" width="190" height="6" rx="3" fill="#94a3b8"/>
  <rect x="305" y="238" width="140" height="6" rx="3" fill="#cbd5e1"/>
  <rect x="305" y="270" width="80" height="5" rx="2.5" fill="#6366f1"/>
  <rect x="305" y="284" width="190" height="4" rx="2" fill="#e2e8f0"/>
  <rect x="305" y="294" width="170" height="4" rx="2" fill="#e2e8f0"/>
  <rect x="305" y="304" width="180" height="4" rx="2" fill="#e2e8f0"/>
  <rect x="305" y="324" width="80" height="5" rx="2.5" fill="#6366f1"/>
  <rect x="305" y="338" width="190" height="4" rx="2" fill="#e2e8f0"/>
  <rect x="305" y="348" width="160" height="4" rx="2" fill="#e2e8f0"/>
  <rect x="305" y="368" width="80" height="5" rx="2.5" fill="#6366f1"/>
  <rect x="305" y="382" width="190" height="4" rx="2" fill="#e2e8f0"/>
  <rect x="305" y="392" width="175" height="4" rx="2" fill="#e2e8f0"/>
  <rect x="305" y="410" width="42" height="14" rx="7" fill="#dbeafe"/>
  <rect x="353" y="410" width="48" height="14" rx="7" fill="#dbeafe"/>
  <rect x="407" y="410" width="38" height="14" rx="7" fill="#dbeafe"/>
  <text x="400" y="500" font-family="Inter, system-ui, sans-serif" font-size="28" font-weight="700" fill="#fff" text-anchor="middle">CV Templates</text>
  <text x="400" y="535" font-family="Inter, system-ui, sans-serif" font-size="14" font-weight="500" fill="#94a3b8" text-anchor="middle" letter-spacing="2">ATS · FRIENDLY</text>
</svg>
