<svg xmlns="http://www.w3.org/2000/svg" viewBox="0 0 800 600">
  <defs>
    <linearGradient id="bg" x1="0%" y1="0%" x2="100%" y2="100%">
      <stop offset="0%" stop-color="#312e81"/>
      <stop offset="100%" stop-color="#1e1b4b"/>
    </linearGradient>
  </defs>
  <rect width="800" height="600" fill="url(#bg)"/>
  <g transform="translate(250, 130)" filter="drop-shadow(0 12px 24px rgba(0,0,0,0.45))">
    <rect width="300" height="240" rx="14" fill="#fff"/>
    <rect width="300" height="50" rx="14" fill="#8b5cf6"/>
    <rect y="38" width="300" height="14" fill="#8b5cf6"/>
    <text x="150" y="32" font-family="Inter, sans-serif" font-size="16" font-weight="700" fill="#fff" text-anchor="middle">APRIL 2026</text>
    <g font-family="Inter, sans-serif" font-size="10" font-weight="600" fill="#a78bfa" text-anchor="middle">
      <text x="30" y="78">S</text><text x="70" y="78">M</text><text x="110" y="78">T</text>
      <text x="150" y="78">W</text><text x="190" y="78">T</text><text x="230" y="78">F</text><text x="270" y="78">S</text>
    </g>
    <rect x="14" y="92"  width="32" height="32" rx="4" fill="#f3f4f6"/>
    <rect x="54" y="92"  width="32" height="32" rx="4" fill="#f3f4f6"/>
    <rect x="94" y="92"  width="32" height="32" rx="4" fill="#ddd6fe"/>
    <rect x="134" y="92" width="32" height="32" rx="4" fill="#f3f4f6"/>
    <rect x="174" y="92" width="32" height="32" rx="4" fill="#a78bfa"/>
    <rect x="214" y="92" width="32" height="32" rx="4" fill="#f3f4f6"/>
    <rect x="254" y="92" width="32" height="32" rx="4" fill="#f3f4f6"/>
    <rect x="14" y="130"  width="32" height="32" rx="4" fill="#f3f4f6"/>
    <rect x="54" y="130"  width="32" height="32" rx="4" fill="#a78bfa"/>
    <rect x="94" y="130"  width="32" height="32" rx="4" fill="#f3f4f6"/>
    <rect x="134" y="130" width="32" height="32" rx="4" fill="#ddd6fe"/>
    <rect x="174" y="130" width="32" height="32" rx="4" fill="#f3f4f6"/>
    <rect x="214" y="130" width="32" height="32" rx="4" fill="#f3f4f6"/>
    <rect x="254" y="130" width="32" height="32" rx="4" fill="#a78bfa"/>
    <rect x="14" y="168"  width="32" height="32" rx="4" fill="#ddd6fe"/>
    <rect x="54" y="168"  width="32" height="32" rx="4" fill="#f3f4f6"/>
    <rect x="94" y="168"  width="32" height="32" rx="4" fill="#f3f4f6"/>
    <rect x="134" y="168" width="32" height="32" rx="4" fill="#a78bfa"/>
    <rect x="174" y="168" width="32" height="32" rx="4" fill="#f3f4f6"/>
    <rect x="214" y="168" width="32" height="32" rx="4" fill="#ddd6fe"/>
    <rect x="254" y="168" width="32" height="32" rx="4" fill="#f3f4f6"/>
  </g>
  <text x="400" y="455" font-family="Inter, system-ui, sans-serif" font-size="28" font-weight="700" fill="#fff" text-anchor="middle">Content Calendar</text>
  <text x="400" y="490" font-family="Inter, system-ui, sans-serif" font-size="14" font-weight="500" fill="#a78bfa" text-anchor="middle" letter-spacing="2">PLAN · SCHEDULE · PUBLISH</text>
</svg>
