<svg width="800" height="600" viewBox="0 0 800 600" xmlns="http://www.w3.org/2000/svg">
  <defs>
    <linearGradient id="bgGradient" x1="0%" y1="0%" x2="100%" y2="100%">
      <stop offset="0%" style="stop-color:#1a1a2e;stop-opacity:1" />
      <stop offset="100%" style="stop-color:#16213e;stop-opacity:1" />
    </linearGradient>
    <filter id="shadow" x="-50%" y="-50%" width="200%" height="200%">
      <feDropShadow dx="8" dy="12" stdDeviation="15" flood-opacity="0.4" flood-color="#000000"/>
    </filter>
    <filter id="cardShadow" x="-50%" y="-50%" width="200%" height="200%">
      <feDropShadow dx="4" dy="8" stdDeviation="12" flood-opacity="0.3" flood-color="#000000"/>
    </filter>
  </defs>
  <rect width="800" height="600" fill="url(#bgGradient)"/>
  <g>
    <text x="50" y="70" font-size="36" font-weight="bold" fill="#ffffff">Freelancer</text>
    <text x="50" y="110" font-size="36" font-weight="bold" fill="#6366f1">Invoice Pack</text>
    <text x="50" y="155" font-size="16" fill="#cbd5e1">Premium Invoice Templates</text>
    <text x="50" y="180" font-size="16" fill="#cbd5e1">&#x628;&#x627;&#x642;&#x629; &#x641;&#x648;&#x627;&#x62A;&#x64A;&#x631; &#x627;&#x62D;&#x62A;&#x631;&#x627;&#x641;&#x64A;&#x629;</text>
    <rect x="50" y="210" width="140" height="34" fill="#6366f1" opacity="0.2" rx="6"/>
    <text x="120" y="235" font-size="12" font-weight="bold" fill="#6366f1" text-anchor="middle">TEMPLATES</text>
    <text x="50" y="280" font-size="14" font-weight="bold" fill="#ffffff">Features</text>
    <circle cx="65" cy="315" r="4" fill="#6366f1"/>
    <text x="85" y="320" font-size="13" fill="#cbd5e1">3 Professional Styles</text>
    <circle cx="65" cy="350" r="4" fill="#6366f1"/>
    <text x="85" y="355" font-size="13" fill="#cbd5e1">Arabic and English Support</text>
    <circle cx="65" cy="385" r="4" fill="#6366f1"/>
    <text x="85" y="390" font-size="13" fill="#cbd5e1">100% Editable SVG Format</text>
    <circle cx="65" cy="420" r="4" fill="#6366f1"/>
    <text x="85" y="425" font-size="13" fill="#cbd5e1">Auto-calculated Tax and Totals</text>
    <rect x="50" y="470" width="240" height="80" fill="#6366f1" opacity="0.15" rx="8"/>
    <text x="60" y="500" font-size="13" fill="#cbd5e1">Price</text>
    <text x="60" y="535" font-size="38" font-weight="bold" fill="#6366f1">99<tspan font-size="20"> EGP</tspan></text>
  </g>
  <g transform="translate(480, 240) rotate(-8)" filter="url(#cardShadow)">
    <rect width="220" height="280" fill="#ffffff" rx="6"/>
    <rect width="220" height="6" fill="#10b981" rx="6"/>
    <rect x="12" y="18" width="50" height="50" fill="#10b981" opacity="0.12" rx="3"/>
    <text x="37" y="48" font-size="18" font-weight="bold" fill="#10b981" text-anchor="middle" dominant-baseline="middle">BC</text>
    <text x="70" y="35" font-size="9" font-weight="bold" fill="#1f2937">BC GROUP</text>
    <text x="70" y="48" font-size="7" fill="#6b7280">Professional Services</text>
    <text x="200" y="35" font-size="7" fill="#10b981" text-anchor="end" font-weight="bold">INV-2024</text>
    <rect x="12" y="80" width="196" height="14" fill="#10b981" opacity="0.08"/>
    <text x="16" y="89" font-size="6" font-weight="bold" fill="#1f2937">Description</text>
    <text x="160" y="89" font-size="6" font-weight="bold" fill="#1f2937" text-anchor="end">Amount</text>
    <text x="16" y="108" font-size="6" fill="#1f2937">Consulting Services</text>
    <text x="204" y="108" font-size="6" fill="#10b981" text-anchor="end" font-weight="bold">5,000</text>
    <text x="16" y="121" font-size="6" fill="#1f2937">Development Hours</text>
    <text x="204" y="121" font-size="6" fill="#10b981" text-anchor="end" font-weight="bold">8,000</text>
    <rect x="12" y="170" width="196" height="20" fill="#10b981" opacity="0.12" rx="3"/>
    <text x="16" y="182" font-size="7" font-weight="bold" fill="#10b981">TOTAL: 14,820 EGP</text>
  </g>
  <g transform="translate(545, 160) rotate(5)" filter="url(#cardShadow)">
    <rect width="220" height="280" fill="#0f172a" rx="6"/>
    <rect width="220" height="6" fill="#06b6d4" rx="6"/>
    <rect x="12" y="18" width="50" height="50" fill="#06b6d4" opacity="0.2" rx="3"/>
    <text x="37" y="48" font-size="18" font-weight="bold" fill="#06b6d4" text-anchor="middle" dominant-baseline="middle">CS</text>
    <text x="70" y="35" font-size="9" font-weight="bold" fill="#f1f5f9">STUDIO</text>
    <text x="70" y="48" font-size="7" fill="#cbd5e1">Creative Design</text>
    <rect x="12" y="80" width="196" height="14" fill="#06b6d4" opacity="0.1"/>
    <text x="16" y="89" font-size="6" font-weight="bold" fill="#06b6d4">Description</text>
    <text x="16" y="108" font-size="6" fill="#f1f5f9">UI/UX Design</text>
    <text x="204" y="108" font-size="6" fill="#06b6d4" text-anchor="end" font-weight="bold">6,000</text>
    <rect x="12" y="170" width="196" height="20" fill="#06b6d4" opacity="0.15" rx="3"/>
    <text x="16" y="182" font-size="7" font-weight="bold" fill="#06b6d4">TOTAL: 9,690 EGP</text>
  </g>
  <g transform="translate(610, 85) rotate(2)" filter="url(#cardShadow)">
    <rect width="220" height="280" fill="#ffffff" rx="6"/>
    <rect width="220" height="6" fill="#6366f1" rx="6"/>
    <circle cx="37" cy="43" r="15" fill="#6366f1" opacity="0.15"/>
    <text x="37" y="48" font-size="16" font-weight="bold" fill="#6366f1" text-anchor="middle" dominant-baseline="middle">AB</text>
    <text x="70" y="35" font-size="9" font-weight="bold" fill="#1f2937">AGENCY</text>
    <text x="70" y="48" font-size="7" fill="#6b7280">Digital Solutions</text>
    <rect x="12" y="80" width="196" height="14" fill="#6366f1" opacity="0.08"/>
    <text x="16" y="89" font-size="6" font-weight="bold" fill="#1f2937">Description</text>
    <text x="16" y="108" font-size="6" fill="#1f2937">Web Design</text>
    <text x="204" y="108" font-size="6" fill="#6366f1" text-anchor="end" font-weight="bold">2,500</text>
    <rect x="12" y="170" width="196" height="20" fill="#6366f1" opacity="0.12" rx="3"/>
    <text x="16" y="182" font-size="7" font-weight="bold" fill="#6366f1">TOTAL: 9,690 EGP</text>
  </g>
  <rect y="580" width="800" height="20" fill="#6366f1" opacity="0.1"/>
  <text x="400" y="598" font-size="12" font-weight="bold" fill="#6366f1" text-anchor="middle">Professional - Modern - Simple</text>
</svg>
